{"glyphs":{"0":{"ha":688,"x_min":0,"x_max":0,"o":""},"1":{"ha":688,"x_min":0,"x_max":0,"o":""},"2":{"ha":688,"x_min":0,"x_max":0,"o":""},"3":{"ha":688,"x_min":0,"x_max":0,"o":""},"4":{"ha":688,"x_min":0,"x_max":0,"o":""},"5":{"ha":688,"x_min":0,"x_max":0,"o":""},"6":{"ha":688,"x_min":0,"x_max":0,"o":""},"7":{"ha":688,"x_min":0,"x_max":0,"o":""},"8":{"ha":688,"x_min":0,"x_max":0,"o":""},"9":{"ha":688,"x_min":0,"x_max":0,"o":""}," ":{"ha":345,"x_min":0,"x_max":0,"o":""}," ":{"ha":345,"x_min":0,"x_max":0,"o":""},"!":{"ha":2084,"x_min":140,"x_max":2009,"o":"m 534 1120 l 905 1120 q 984 1063 939 1120 q 1003 1009 1003 1038 q 919 925 1003 989 q 900 876 900 894 q 970 773 900 833 q 1079 746 999 746 q 1215 808 1170 746 q 1250 876 1242 838 q 1166 977 1250 918 q 1147 1006 1147 996 l 1147 1025 q 1206 1104 1147 1057 q 1247 1120 1230 1120 l 1613 1120 q 1635 1096 1635 1120 l 1635 741 q 1695 673 1635 709 l 1703 673 q 1803 768 1770 759 q 1830 773 1825 773 l 1849 773 q 1971 694 1900 773 q 2009 562 2009 652 q 1944 399 2009 448 q 1847 350 1889 350 l 1833 350 q 1711 442 1773 350 q 1697 450 1702 450 q 1635 382 1635 414 l 1635 24 q 1611 0 1635 0 l 536 0 q 515 22 515 0 l 515 380 q 452 450 515 411 l 444 450 q 322 350 375 350 l 295 350 q 170 437 243 350 q 140 562 140 474 q 219 735 140 686 q 306 773 264 773 l 311 773 q 441 675 376 773 l 447 673 q 515 738 482 673 l 515 1101 q 534 1120 515 1120 z "},"\"":{"ha":1990,"x_min":68,"x_max":1935,"o":"m 462 1118 l 828 1118 q 915 1055 867 1118 q 928 1017 928 1031 l 928 1004 q 852 928 928 986 q 825 873 833 909 q 909 762 848 799 q 1004 743 937 743 q 1143 808 1101 743 q 1175 871 1171 837 l 1175 873 q 1086 979 1175 920 q 1072 1006 1072 995 l 1072 1015 q 1148 1112 1072 1061 q 1175 1118 1170 1118 l 1541 1118 q 1560 1099 1560 1118 l 1560 746 q 1623 670 1560 705 l 1628 670 q 1688 738 1632 671 q 1764 770 1726 770 l 1777 770 q 1894 697 1823 770 q 1935 567 1935 654 l 1935 551 q 1853 382 1935 433 q 1780 347 1808 347 l 1761 347 q 1634 445 1698 347 l 1628 448 q 1566 393 1603 448 q 1560 372 1560 383 l 1560 19 q 1541 0 1560 0 l 1170 0 q 1091 54 1142 0 q 1072 103 1072 85 l 1072 111 q 1148 187 1072 131 q 1175 241 1175 217 l 1175 244 q 1126 328 1175 278 q 1018 372 1086 372 l 988 372 q 825 244 867 372 q 909 144 825 200 q 928 114 928 125 l 928 95 q 869 14 920 53 q 828 0 839 0 l 462 0 q 443 19 443 0 l 443 369 q 375 448 443 415 l 372 448 q 245 347 302 347 l 229 347 q 87 448 160 347 q 68 537 68 486 l 68 578 q 210 768 68 712 q 231 770 220 770 l 245 770 q 372 670 299 770 l 375 670 q 443 754 443 698 l 443 1099 q 462 1118 443 1118 z "},"#":{"ha":2010,"x_min":79,"x_max":1948,"o":"m 473 1492 l 844 1492 q 928 1427 882 1492 q 942 1389 942 1407 l 942 1381 q 863 1302 942 1360 q 839 1245 839 1270 q 915 1139 853 1187 q 1018 1118 949 1118 q 1156 1183 1110 1118 q 1189 1251 1189 1223 q 1097 1356 1189 1290 q 1086 1381 1086 1371 l 1086 1392 q 1159 1484 1086 1437 q 1186 1492 1173 1492 l 1552 1492 q 1574 1470 1574 1492 l 1574 1112 q 1642 1042 1574 1077 q 1737 1137 1704 1126 q 1777 1145 1761 1145 l 1783 1145 q 1919 1055 1848 1145 q 1948 933 1948 1017 q 1883 770 1948 819 q 1786 722 1830 722 l 1767 722 q 1653 811 1715 722 l 1642 822 q 1585 779 1619 822 q 1574 754 1574 764 l 1574 393 q 1550 372 1574 372 l 1197 372 q 1124 307 1156 372 l 1124 304 q 1227 168 1227 235 l 1227 165 q 1126 22 1227 93 q 1026 0 1094 0 l 994 0 q 806 136 862 0 q 801 165 801 146 l 801 168 q 904 304 801 236 q 831 372 871 372 l 475 372 q 454 393 454 372 l 454 749 q 389 822 454 788 l 383 822 q 261 722 315 722 l 234 722 q 101 819 178 722 q 79 936 79 861 q 142 1093 79 1044 q 237 1145 191 1139 l 250 1145 q 375 1053 317 1145 q 386 1042 379 1053 q 454 1118 454 1076 l 454 1473 q 473 1492 454 1492 z "},"$":{"ha":1692,"x_min":77,"x_max":1569,"o":"m 1002 1492 l 1018 1492 q 1173 1427 1125 1492 q 1221 1329 1221 1375 l 1221 1313 q 1186 1242 1221 1283 q 1121 1185 1121 1189 q 1205 1118 1149 1118 l 1550 1118 q 1569 1099 1569 1118 l 1569 19 q 1550 0 1569 0 l 470 0 q 451 19 451 0 l 451 369 q 386 448 451 414 l 380 448 q 277 350 318 363 l 242 345 q 128 407 194 345 q 77 540 77 456 l 77 570 q 147 727 77 676 q 231 770 191 766 l 248 770 q 378 673 310 770 l 383 670 q 446 724 410 670 q 451 749 451 742 l 451 1099 q 470 1118 451 1118 l 814 1118 q 899 1183 867 1118 l 899 1188 q 798 1313 798 1259 l 798 1337 q 890 1468 798 1390 q 1002 1492 930 1492 z "},"%":{"ha":1683,"x_min":42,"x_max":1531,"o":"m 951 1492 l 994 1492 q 1181 1354 1126 1492 q 1187 1324 1184 1350 q 1149 1242 1187 1284 q 1084 1183 1084 1190 q 1157 1120 1118 1120 l 1512 1120 q 1531 1101 1531 1120 l 1531 19 q 1512 0 1531 0 l 1149 0 q 1054 73 1100 0 q 1046 100 1046 87 l 1046 114 q 1122 190 1046 132 q 1149 244 1143 214 q 1089 339 1144 283 q 972 374 1053 374 q 840 320 878 374 q 799 244 799 275 q 888 138 799 199 q 902 111 902 123 l 902 103 q 826 8 902 55 q 799 0 812 0 l 433 0 q 414 19 414 0 l 414 372 q 346 450 414 416 q 237 353 271 353 q 216 347 227 347 l 205 347 q 56 456 130 347 q 42 515 42 488 l 42 597 q 88 708 42 661 q 210 773 153 773 q 338 675 273 773 q 349 670 345 670 q 414 746 414 705 l 414 1099 q 435 1120 414 1120 l 793 1120 q 859 1175 822 1120 l 864 1188 q 761 1313 761 1259 l 761 1337 q 812 1432 761 1373 q 951 1492 865 1492 z "},"&":{"ha":1727,"x_min":103,"x_max":1598,"o":"m 1012 1864 l 1061 1864 q 1245 1728 1189 1864 q 1251 1698 1251 1717 l 1251 1695 q 1166 1576 1251 1632 q 1147 1557 1147 1559 q 1221 1492 1181 1492 l 1576 1492 q 1598 1470 1598 1492 l 1598 391 q 1579 372 1598 372 l 1226 372 q 1147 304 1180 372 q 1242 201 1242 230 q 1251 165 1251 193 l 1251 163 q 1145 16 1251 87 q 1080 0 1114 0 l 996 0 q 827 138 892 0 l 825 165 q 917 293 825 231 q 928 307 928 300 q 854 372 891 372 l 499 372 q 477 393 477 372 l 477 751 q 423 817 477 780 l 410 822 q 282 719 337 719 l 269 719 q 127 817 199 719 q 103 930 103 856 q 149 1074 103 1031 q 274 1145 215 1145 q 401 1050 336 1145 q 415 1042 410 1042 q 477 1112 477 1080 l 477 1470 q 502 1492 477 1492 l 854 1492 q 925 1552 892 1492 q 928 1560 928 1557 q 827 1682 827 1631 q 825 1698 825 1682 q 933 1847 825 1774 q 1012 1864 967 1864 z "},"'":{"ha":1701,"x_min":68,"x_max":1560,"o":"m 977 1492 l 1023 1492 q 1213 1343 1159 1492 l 1213 1313 q 1175 1240 1211 1278 q 1113 1185 1113 1190 q 1170 1123 1113 1158 q 1192 1118 1180 1118 l 1541 1118 q 1560 1099 1560 1118 l 1560 727 q 1487 637 1560 688 q 1452 629 1464 629 q 1373 705 1430 629 q 1319 735 1356 725 q 1186 559 1186 696 q 1262 410 1186 454 q 1316 385 1294 385 l 1319 385 q 1425 475 1360 385 q 1452 488 1440 488 q 1560 396 1517 488 l 1560 19 q 1541 0 1560 0 l 462 0 q 443 19 443 0 l 443 363 q 375 448 443 420 q 313 374 372 448 q 248 347 267 347 l 231 347 q 85 456 157 347 q 68 545 68 492 l 68 562 q 128 716 68 674 q 237 773 184 773 q 356 689 302 773 q 375 670 372 670 q 437 724 400 670 q 443 749 443 742 l 443 1099 q 462 1118 443 1118 l 806 1118 q 890 1185 862 1118 l 890 1191 q 790 1321 790 1256 l 790 1329 q 885 1468 790 1397 q 977 1492 919 1492 z "},"(":{"ha":1756,"x_min":171,"x_max":1663,"o":"m 1107 1495 q 1280 1411 1228 1495 q 1316 1326 1316 1368 l 1316 1324 q 1213 1188 1316 1259 q 1286 1120 1246 1120 l 1644 1120 q 1663 1101 1663 1120 l 1663 735 q 1587 637 1663 688 q 1560 632 1565 632 l 1552 632 q 1473 708 1531 632 q 1416 735 1442 735 q 1308 656 1360 723 q 1289 559 1289 620 q 1343 426 1289 467 q 1419 385 1385 389 q 1525 475 1461 385 q 1552 488 1540 488 l 1565 488 q 1649 423 1603 488 q 1663 385 1663 401 l 1663 19 q 1644 0 1663 0 l 1278 0 q 1183 73 1231 0 q 1175 103 1175 94 l 1175 111 q 1242 182 1175 134 q 1278 244 1274 210 q 1204 350 1278 288 q 1099 374 1174 374 q 960 309 1006 374 q 928 244 938 286 q 1012 144 928 203 q 1031 114 1031 127 l 1031 100 q 963 11 1031 59 q 933 0 941 0 l 564 0 q 543 22 543 0 l 543 380 q 488 445 543 408 q 475 450 479 450 q 380 355 416 370 q 339 347 355 347 l 336 347 q 193 448 262 347 q 171 537 171 477 l 171 581 q 236 724 171 674 q 336 773 290 773 l 339 773 q 472 673 405 773 l 477 670 q 534 719 496 670 q 543 743 543 729 l 543 1099 q 564 1120 543 1120 l 920 1120 q 990 1180 956 1120 q 993 1188 993 1185 q 895 1299 895 1263 q 890 1329 891 1299 q 990 1473 890 1396 q 1107 1495 1032 1495 z "},")":{"ha":1689,"x_min":39,"x_max":1534,"o":"m 951 1864 l 994 1864 q 1173 1744 1116 1864 q 1184 1709 1184 1723 l 1184 1685 q 1149 1614 1184 1655 q 1084 1554 1084 1562 q 1171 1489 1116 1489 l 1512 1489 q 1534 1468 1534 1489 l 1534 1131 q 1436 1004 1534 1036 l 1420 1004 q 1344 1080 1398 1004 q 1290 1107 1306 1107 q 1160 944 1160 1067 l 1160 914 q 1282 757 1160 803 l 1290 757 q 1385 836 1332 757 q 1420 860 1409 860 l 1428 860 q 1518 798 1470 860 q 1534 730 1534 773 l 1534 393 q 1512 372 1534 372 l 1160 372 q 1084 307 1118 372 l 1084 301 q 1184 179 1184 230 l 1184 152 q 1105 33 1184 104 q 1016 0 1065 0 l 929 0 q 764 138 827 0 l 761 155 l 761 168 q 796 247 761 208 q 861 304 861 300 q 810 366 861 328 q 785 372 792 372 l 433 372 q 414 391 414 372 l 414 743 q 346 822 414 786 q 237 724 274 724 q 218 719 237 719 l 197 719 q 85 787 151 719 q 39 936 39 827 q 115 1104 39 1051 q 210 1145 165 1145 q 335 1053 271 1145 q 349 1042 342 1042 q 414 1126 414 1074 l 414 1470 q 433 1489 414 1489 l 772 1489 q 861 1557 836 1489 l 861 1560 q 766 1666 766 1633 q 761 1687 761 1676 l 761 1701 q 864 1845 761 1773 q 951 1864 897 1864 z "},"*":{"ha":2096,"x_min":148,"x_max":2014,"o":"m 1059 1492 l 1103 1492 q 1257 1411 1202 1492 q 1293 1329 1293 1368 l 1293 1321 q 1190 1188 1293 1257 q 1263 1120 1223 1120 l 1618 1120 q 1640 1099 1640 1120 l 1640 746 q 1705 670 1640 705 l 1710 670 q 1846 773 1780 773 q 1979 692 1908 773 q 2014 562 2014 654 l 2014 559 q 1952 399 2014 445 q 1857 347 1894 347 l 1843 347 q 1718 439 1779 347 q 1708 450 1714 439 q 1640 372 1640 416 l 1640 19 q 1621 0 1640 0 l 541 0 q 522 19 522 0 l 522 361 q 452 450 522 419 q 324 347 381 347 l 305 347 q 172 439 249 347 q 148 540 148 480 l 148 581 q 294 770 148 717 q 316 773 309 773 q 444 678 380 773 q 457 670 452 670 q 522 757 522 703 l 522 1099 q 544 1120 522 1120 l 897 1120 q 970 1185 939 1120 l 970 1188 q 867 1318 867 1264 l 867 1324 q 970 1473 867 1398 q 1059 1492 1005 1492 z "},"+":{"ha":2007,"x_min":59,"x_max":1928,"o":"m 973 1492 l 1014 1492 q 1204 1345 1152 1492 q 1206 1321 1206 1335 q 1120 1202 1206 1261 q 1103 1185 1103 1189 q 1174 1120 1140 1120 l 1532 1120 q 1554 1096 1554 1120 l 1554 738 q 1597 681 1558 710 q 1622 670 1613 670 q 1733 768 1695 768 q 1763 773 1733 772 q 1909 667 1831 773 q 1928 562 1928 621 q 1852 388 1928 440 q 1763 347 1803 347 l 1757 347 q 1622 450 1691 347 q 1554 377 1554 417 l 1554 22 q 1532 0 1554 0 l 1168 0 q 1074 73 1121 0 q 1065 100 1065 87 l 1065 114 q 1141 190 1065 131 q 1168 244 1164 212 q 1112 336 1168 278 q 995 374 1076 374 q 859 320 899 374 q 819 244 819 274 q 908 138 819 200 q 922 111 922 123 l 922 100 q 846 8 922 54 q 819 0 832 0 l 455 0 q 433 22 433 0 l 433 374 q 366 450 433 417 q 241 347 293 351 l 219 347 q 92 431 165 347 q 59 564 59 467 q 127 724 59 675 q 230 773 181 773 q 363 670 294 773 l 368 670 q 433 741 433 707 l 433 1099 q 455 1120 433 1120 l 813 1120 q 878 1175 842 1120 q 884 1188 884 1183 q 781 1316 781 1259 l 781 1329 q 889 1476 781 1404 q 973 1492 922 1492 z "},",":{"ha":2101,"x_min":81,"x_max":1944,"o":"m 987 1864 l 1041 1864 q 1160 1817 1113 1864 q 1225 1709 1225 1751 l 1225 1685 q 1160 1590 1225 1640 q 1125 1560 1125 1563 l 1125 1557 q 1187 1492 1125 1527 l 1551 1492 q 1573 1470 1573 1492 l 1573 1120 q 1638 1042 1573 1076 l 1643 1042 q 1779 1145 1713 1145 q 1928 1042 1850 1145 q 1944 974 1944 1004 l 1944 887 q 1822 727 1944 794 q 1790 719 1798 719 l 1776 719 q 1649 814 1713 719 l 1640 819 q 1578 765 1614 819 q 1573 743 1573 755 l 1573 391 q 1554 372 1573 372 l 1201 372 q 1125 307 1158 372 l 1125 304 l 1196 241 q 1225 176 1222 210 l 1225 160 q 1120 14 1225 90 q 1049 0 1082 0 l 979 0 q 827 92 888 0 q 802 152 802 132 l 802 179 q 851 260 802 216 q 903 304 899 297 q 848 366 903 330 q 827 372 838 372 l 474 372 q 455 391 455 372 l 455 735 q 387 819 455 791 l 382 819 q 252 719 317 719 l 238 719 q 119 795 189 719 q 81 911 81 838 l 81 949 q 127 1077 81 1031 q 252 1145 193 1145 q 379 1047 313 1145 q 390 1042 386 1042 q 455 1128 455 1073 l 455 1470 q 477 1492 455 1492 l 835 1492 q 903 1554 868 1492 l 903 1560 q 802 1685 802 1633 l 802 1709 q 884 1831 802 1760 q 987 1864 925 1864 z "},"-":{"ha":454,"x_min":0,"x_max":0,"o":""},"­":{"ha":454,"x_min":0,"x_max":0,"o":""},".":{"ha":378,"x_min":0,"x_max":0,"o":""},"/":{"ha":386,"x_min":0,"x_max":0,"o":""},":":{"ha":378,"x_min":0,"x_max":0,"o":""},";":{"ha":378,"x_min":0,"x_max":0,"o":""},";":{"ha":378,"x_min":0,"x_max":0,"o":""},"<":{"ha":688,"x_min":0,"x_max":0,"o":""},"=":{"ha":688,"x_min":0,"x_max":0,"o":""},">":{"ha":688,"x_min":0,"x_max":0,"o":""},"?":{"ha":507,"x_min":0,"x_max":0,"o":""},"@":{"ha":1369,"x_min":0,"x_max":0,"o":""},"A":{"ha":1219,"x_min":0,"x_max":1118,"o":"m 8 1118 l 1109 1118 q 1118 1101 1118 1115 l 1118 727 q 1055 646 1109 685 q 1015 632 1025 632 l 1006 632 q 922 716 987 632 q 873 735 892 735 q 781 678 839 735 q 743 562 743 640 q 779 448 743 484 q 873 385 838 385 q 977 472 916 385 q 1004 488 993 488 l 1023 488 q 1109 420 1059 488 q 1118 391 1118 399 l 1118 22 q 1096 0 1118 0 l 746 0 q 632 90 675 0 l 629 106 l 629 111 q 697 182 629 134 q 732 244 732 215 l 732 247 q 654 355 732 292 q 570 374 626 374 l 545 374 q 410 301 453 374 q 385 244 385 274 q 445 163 385 203 q 486 114 486 133 l 486 100 q 415 11 486 55 q 369 0 399 0 l 19 0 q 0 19 0 0 l 0 1101 q 8 1118 2 1118 z "},"B":{"ha":1202,"x_min":0,"x_max":1120,"o":"m 8 1489 l 1112 1489 q 1120 1473 1120 1487 l 1120 1115 q 1023 1004 1120 1044 l 1009 1004 q 928 1085 987 1004 q 876 1107 897 1107 l 873 1107 q 765 1025 828 1107 q 746 928 746 1000 q 803 798 746 837 q 876 757 823 772 q 977 841 917 757 q 1006 860 996 860 l 1025 860 q 1107 798 1057 860 q 1120 751 1120 776 l 1120 393 q 1101 374 1120 374 l 757 374 q 670 304 701 374 q 773 168 773 236 l 773 165 q 678 24 773 96 q 581 0 644 0 l 540 0 q 350 146 404 0 q 347 168 347 161 q 442 296 347 234 q 450 309 450 304 q 363 374 418 374 l 19 374 q 0 393 0 374 l 0 1473 q 8 1489 2 1489 z "},"C":{"ha":1626,"x_min":0,"x_max":1492,"o":"m 8 1118 l 1109 1118 q 1118 1101 1118 1115 l 1118 757 q 1188 670 1118 701 q 1324 773 1256 773 l 1335 773 q 1443 711 1376 773 q 1492 581 1492 661 l 1492 543 q 1345 350 1492 404 q 1324 347 1326 347 q 1196 442 1258 347 q 1183 450 1187 450 q 1118 372 1118 416 l 1118 19 q 1099 0 1118 0 l 749 0 q 635 87 674 0 q 632 100 632 92 l 632 114 q 705 187 632 136 q 732 241 732 219 l 732 247 q 637 366 732 302 q 575 374 600 374 l 548 374 q 423 317 463 374 q 385 247 388 280 l 385 244 q 475 138 385 201 q 488 111 488 123 l 488 106 q 412 8 488 57 q 369 0 392 0 l 22 0 q 0 22 0 0 l 0 1101 q 8 1118 2 1118 z "},"D":{"ha":1542,"x_min":0,"x_max":1495,"o":"m 8 1489 l 1112 1489 q 1120 1473 1120 1487 l 1120 1115 q 1185 1042 1120 1080 l 1188 1042 q 1321 1145 1261 1145 l 1329 1145 q 1462 1061 1393 1145 q 1495 933 1495 1023 q 1424 765 1495 814 q 1324 719 1370 719 q 1194 819 1261 719 l 1188 822 q 1126 768 1162 822 q 1120 746 1120 758 l 1120 393 q 1096 372 1120 372 l 741 372 q 675 317 712 372 q 670 304 670 309 q 773 168 773 235 l 773 163 q 686 30 773 100 q 583 0 649 0 l 540 0 q 415 46 458 0 q 347 168 347 111 q 442 296 347 234 q 450 309 450 304 q 382 372 416 372 l 24 372 q 0 396 0 372 l 0 1473 q 8 1489 2 1489 z "},"E":{"ha":1246,"x_min":0,"x_max":1120,"o":"m 8 1118 l 393 1118 q 475 1055 431 1118 q 488 1017 488 1031 l 488 1009 q 410 930 488 986 q 385 873 385 895 q 461 768 400 813 q 562 746 496 746 q 700 808 658 746 q 735 876 726 833 q 643 982 735 919 q 632 1006 632 1000 l 632 1020 q 659 1077 632 1041 q 722 1118 702 1118 l 1109 1118 q 1120 1099 1120 1114 l 1120 746 q 1088 673 1120 707 q 1017 632 1047 632 l 1006 632 q 936 703 986 632 q 871 735 903 735 q 760 648 802 714 q 746 570 746 615 l 746 551 q 814 415 746 458 q 876 385 834 394 q 971 464 918 385 q 1006 488 995 488 l 1017 488 q 1115 410 1065 488 q 1120 374 1120 385 l 1120 22 q 1099 0 1120 0 l 19 0 q 0 19 0 0 l 0 1101 q 8 1118 2 1118 z "},"F":{"ha":1234,"x_min":0,"x_max":1118,"o":"m 8 1115 l 391 1115 q 477 1044 433 1115 q 486 1017 486 1031 l 486 1006 q 418 936 486 985 q 382 871 382 903 q 445 776 387 836 q 559 743 488 743 q 697 806 654 743 q 732 873 732 844 q 643 979 732 920 q 629 1006 629 997 l 629 1015 q 686 1099 629 1055 q 722 1115 711 1115 l 1109 1115 q 1118 1099 1118 1112 l 1118 732 q 1047 640 1118 687 q 1006 629 1024 629 q 930 705 986 629 q 876 732 899 732 l 873 732 q 757 643 820 732 q 743 562 743 605 q 798 426 743 465 q 873 385 842 385 l 879 385 q 982 477 918 385 q 1012 488 998 488 q 1112 410 1063 488 q 1118 385 1118 392 l 1118 19 q 1099 0 1118 0 l 730 0 q 635 79 682 0 q 629 109 629 90 l 629 111 q 713 195 629 131 q 732 244 732 225 q 665 345 728 290 q 559 374 631 374 q 423 317 464 374 q 382 244 395 290 q 472 138 382 200 q 486 111 486 123 l 486 100 q 423 14 486 60 q 385 0 399 0 l 19 0 q 0 19 0 0 l 0 1099 q 8 1115 2 1115 z "},"G":{"ha":1246,"x_min":0,"x_max":1120,"o":"m 11 1489 l 396 1489 q 477 1421 433 1489 q 488 1381 488 1404 q 404 1297 488 1361 q 385 1248 385 1264 q 467 1137 385 1200 q 564 1118 495 1118 q 711 1196 666 1118 q 735 1248 724 1205 q 654 1345 735 1290 q 629 1383 629 1370 q 711 1487 629 1439 q 722 1489 715 1489 l 1109 1489 q 1118 1473 1118 1487 l 1118 1145 q 1120 1101 1118 1129 q 1063 1023 1120 1073 q 1015 1004 1034 1004 l 1009 1004 q 936 1074 987 1004 q 871 1107 905 1107 q 746 941 746 1065 l 746 925 q 781 817 746 852 q 873 757 823 770 q 985 852 918 757 q 1006 860 998 860 l 1020 860 q 1112 787 1064 860 q 1120 765 1118 765 q 1118 719 1118 733 l 1118 391 q 1099 372 1118 372 l 743 372 q 670 307 701 372 l 670 304 q 770 187 770 229 q 773 165 773 177 q 667 19 773 90 q 581 0 637 0 l 540 0 q 347 149 401 0 l 347 171 q 448 301 347 236 l 448 307 q 388 372 448 334 l 22 372 q 0 393 0 372 l 0 1470 q 11 1489 0 1485 z "},"H":{"ha":1520,"x_min":0,"x_max":1489,"o":"m 8 1118 l 396 1118 q 456 1080 422 1114 q 488 1009 488 1044 q 431 949 488 989 q 382 876 389 917 q 458 768 382 838 q 559 746 497 746 q 700 811 662 746 q 732 876 732 848 q 654 974 732 921 q 629 1012 629 995 q 711 1115 629 1070 q 722 1118 715 1118 l 1109 1118 q 1118 1101 1118 1115 l 1118 743 q 1180 673 1118 709 l 1185 673 q 1245 741 1190 673 q 1321 773 1283 773 l 1326 773 q 1476 665 1403 773 q 1489 605 1489 634 l 1489 518 q 1438 407 1489 458 q 1326 347 1374 347 q 1204 431 1258 347 l 1185 450 q 1123 396 1160 450 q 1118 374 1118 386 l 1118 22 q 1096 0 1118 0 l 19 0 q 0 19 0 0 l 0 1101 q 8 1118 2 1118 z "},"I":{"ha":1593,"x_min":0,"x_max":1492,"o":"m 19 1118 l 388 1118 q 483 1039 435 1118 q 488 1006 488 1020 q 407 925 488 989 q 382 876 392 910 q 456 770 401 808 q 559 743 492 743 q 700 808 657 743 q 732 873 728 838 l 732 876 q 648 977 732 918 q 629 1012 629 996 q 703 1109 629 1063 q 730 1118 717 1118 l 1099 1118 q 1118 1099 1118 1118 l 1118 746 q 1183 670 1118 704 l 1188 670 q 1313 770 1259 770 l 1337 770 q 1462 684 1390 770 q 1492 570 1492 650 l 1492 543 q 1351 350 1492 405 q 1329 347 1341 347 l 1321 347 q 1194 442 1258 347 l 1185 448 q 1123 393 1159 448 q 1118 372 1118 383 l 1118 19 q 1099 0 1118 0 l 741 0 q 635 84 677 0 q 629 109 629 97 q 697 179 629 134 q 732 241 732 214 l 732 247 q 640 363 732 296 q 556 374 606 372 q 388 260 433 374 q 385 247 385 256 l 385 241 q 461 149 385 199 q 488 109 488 127 l 488 106 q 418 11 488 59 q 377 0 400 0 l 19 0 q 0 19 0 0 l 0 1099 q 19 1118 0 1118 z "},"J":{"ha":1573,"x_min":0,"x_max":1495,"o":"m 19 1492 l 393 1492 q 475 1430 425 1492 q 488 1392 488 1406 l 488 1381 q 407 1299 488 1362 q 385 1248 389 1275 q 475 1131 385 1200 q 562 1118 514 1120 q 735 1240 686 1118 l 735 1248 q 646 1354 735 1293 q 632 1381 632 1369 l 632 1397 q 705 1487 632 1434 q 727 1492 724 1492 l 1101 1492 q 1120 1473 1120 1492 l 1120 1118 q 1185 1044 1120 1077 l 1188 1044 q 1308 1145 1265 1145 l 1337 1145 q 1454 1072 1384 1145 q 1495 930 1495 1031 q 1392 743 1495 798 q 1337 722 1358 722 l 1316 722 q 1194 819 1260 722 l 1188 822 q 1120 760 1155 822 l 1120 393 q 1101 374 1120 374 l 757 374 q 670 304 697 374 q 765 203 765 236 q 773 168 773 195 l 773 165 q 681 27 773 98 q 567 0 645 0 l 553 0 q 382 81 437 0 q 347 165 347 129 l 347 168 q 439 296 347 235 q 450 307 439 300 q 363 374 420 374 l 19 374 q 0 393 0 374 l 0 1473 q 19 1492 0 1492 z "},"K":{"ha":1220,"x_min":0,"x_max":1120,"o":"m 540 1492 l 581 1492 q 746 1397 690 1492 q 773 1324 773 1358 q 678 1196 773 1261 q 670 1183 670 1187 q 749 1118 705 1118 l 1101 1118 q 1120 1099 1120 1118 l 1120 757 q 1023 632 1120 664 l 1006 632 q 933 705 984 632 q 879 732 901 732 l 871 732 q 760 646 823 732 q 746 572 746 621 l 746 543 q 868 385 746 431 l 876 385 q 971 464 919 385 q 1009 488 996 488 l 1015 488 q 1115 407 1065 488 q 1120 372 1120 382 l 1120 22 q 1099 0 1120 0 l 19 0 q 0 19 0 0 l 0 1099 q 19 1118 0 1118 l 363 1118 q 450 1188 419 1118 q 347 1316 347 1259 l 347 1335 q 407 1440 347 1376 q 540 1492 456 1492 z "},"L":{"ha":1232,"x_min":0,"x_max":1120,"o":"m 548 1492 l 581 1492 q 773 1343 719 1492 l 773 1316 q 735 1240 773 1283 q 670 1185 671 1190 q 719 1128 681 1154 q 743 1120 729 1120 l 1096 1120 q 1120 1099 1120 1120 l 1120 732 q 1047 640 1120 687 q 1020 632 1034 632 l 1006 632 q 933 705 986 632 q 879 732 903 732 l 873 732 q 765 651 825 732 q 746 556 746 623 q 781 445 746 480 q 876 385 837 385 q 979 472 921 385 q 1009 488 997 488 l 1015 488 q 1115 410 1067 488 q 1120 385 1120 392 l 1120 19 q 1101 0 1120 0 l 735 0 q 637 79 684 0 q 632 100 632 89 l 632 111 q 713 193 632 133 q 735 244 735 224 q 654 355 735 290 q 559 374 621 374 q 426 317 465 374 q 385 244 397 294 q 480 133 385 202 q 488 111 488 119 l 488 100 q 420 11 488 59 q 391 0 399 0 l 22 0 q 0 22 0 0 l 0 1099 q 24 1120 0 1120 l 377 1120 q 448 1180 414 1120 q 450 1188 450 1185 q 347 1318 347 1260 l 347 1329 q 431 1459 347 1390 q 548 1492 466 1492 z "},"M":{"ha":1219,"x_min":0,"x_max":1120,"o":"m 534 1866 l 586 1866 q 768 1728 711 1866 q 773 1698 773 1714 q 678 1571 773 1634 q 670 1557 670 1562 q 757 1492 703 1492 l 1101 1492 q 1120 1473 1120 1492 l 1120 1120 q 1031 1006 1120 1050 l 1006 1004 q 930 1082 986 1006 q 876 1109 893 1109 q 787 1055 843 1109 q 746 944 746 1019 l 746 922 q 868 760 746 804 l 876 760 q 982 849 918 760 q 1015 863 999 863 q 1109 789 1063 863 q 1120 749 1120 772 l 1120 393 q 1101 374 1120 374 l 746 374 q 670 307 703 374 l 670 304 q 773 165 773 236 q 708 49 773 115 q 567 0 663 0 l 556 0 q 407 54 450 0 q 347 165 347 113 l 347 168 q 439 296 347 234 q 450 307 439 300 q 377 374 414 374 l 19 374 q 0 393 0 374 l 0 1473 q 19 1492 0 1492 l 369 1492 q 450 1563 417 1492 q 350 1682 350 1634 q 347 1698 347 1682 l 347 1701 q 442 1842 347 1771 q 534 1866 476 1866 z "},"N":{"ha":1603,"x_min":0,"x_max":1492,"o":"m 537 1492 l 578 1492 q 732 1416 677 1492 q 770 1329 770 1368 l 770 1321 q 667 1188 770 1257 q 741 1120 701 1120 l 1096 1120 q 1118 1099 1118 1120 l 1118 746 q 1183 670 1118 704 l 1185 670 q 1275 760 1258 759 q 1324 773 1295 770 q 1454 694 1383 773 q 1492 562 1492 656 l 1492 559 q 1430 399 1492 444 q 1335 347 1373 347 l 1321 347 q 1194 442 1256 347 l 1185 448 q 1123 393 1159 448 q 1118 372 1118 383 l 1118 19 q 1099 0 1118 0 l 19 0 q 0 19 0 0 l 0 1099 q 22 1120 0 1120 l 380 1120 q 448 1183 412 1120 l 448 1188 q 347 1310 347 1261 l 345 1324 q 434 1465 345 1390 q 537 1492 477 1492 z "},"O":{"ha":1603,"x_min":0,"x_max":1495,"o":"m 540 1492 l 581 1492 q 768 1354 712 1492 q 773 1324 773 1343 q 678 1196 773 1257 q 670 1183 670 1187 q 743 1120 704 1120 l 1096 1120 q 1118 1099 1118 1120 l 1118 757 q 1188 670 1118 698 q 1313 770 1261 770 l 1326 773 q 1462 686 1390 773 q 1495 559 1495 646 q 1427 396 1495 445 q 1335 347 1372 347 l 1324 347 q 1199 437 1259 347 q 1188 450 1197 437 q 1118 361 1118 419 l 1118 19 q 1099 0 1118 0 l 732 0 q 640 71 690 0 q 629 114 629 96 q 700 182 631 131 q 735 244 731 212 q 667 345 726 295 q 556 374 636 374 q 445 339 479 374 q 385 244 385 282 q 477 136 385 199 q 488 106 488 117 q 410 5 488 53 q 385 0 392 0 l 19 0 q 0 19 0 0 l 0 1101 q 19 1120 0 1120 l 377 1120 q 448 1183 414 1120 l 448 1188 q 353 1297 353 1261 q 347 1316 348 1297 l 347 1329 q 445 1470 347 1398 q 540 1492 480 1492 z "},"P":{"ha":1619,"x_min":0,"x_max":1489,"o":"m 537 1866 l 583 1866 q 770 1720 713 1866 l 770 1695 q 670 1565 770 1630 l 670 1560 q 757 1492 698 1492 l 1099 1492 q 1118 1473 1118 1492 l 1118 1123 q 1188 1044 1118 1073 q 1286 1139 1251 1130 q 1326 1147 1303 1145 q 1462 1058 1388 1147 q 1489 977 1489 1021 l 1489 890 q 1359 727 1489 791 q 1335 722 1341 722 l 1321 722 q 1191 819 1258 722 l 1185 822 q 1123 768 1159 822 q 1118 746 1118 758 l 1118 393 q 1099 374 1118 374 l 746 374 q 670 309 703 374 l 670 307 q 730 255 670 302 q 770 182 764 222 l 770 163 q 673 22 770 96 q 562 0 636 0 l 551 0 q 382 81 434 0 q 347 155 347 125 l 347 174 q 445 301 347 236 l 448 307 q 363 374 420 374 l 19 374 q 0 393 0 374 l 0 1473 q 19 1492 0 1492 l 361 1492 q 448 1560 419 1492 l 448 1563 q 347 1687 347 1636 l 347 1712 q 434 1839 358 1778 q 537 1866 476 1866 z "},"Q":{"ha":1270,"x_min":0,"x_max":1118,"o":"m 19 1120 l 1099 1120 q 1118 1101 1118 1120 l 1118 19 q 1099 0 1118 0 l 735 0 q 640 73 686 0 q 629 114 629 94 q 705 187 629 132 q 732 241 732 218 l 732 247 q 667 345 732 286 q 564 374 636 374 l 553 374 q 415 307 456 374 q 385 244 385 273 q 469 144 385 199 q 488 109 488 125 q 401 3 488 50 q 377 0 387 0 l 19 0 q 0 19 0 0 l 0 388 q 81 486 0 436 l 95 488 l 111 488 q 193 407 134 488 q 244 385 228 385 q 353 464 303 397 q 374 559 374 500 q 315 697 374 659 q 244 735 279 731 l 239 735 q 179 697 214 735 q 109 632 133 632 l 103 632 q 8 705 55 632 q 0 732 0 720 l 0 1101 q 19 1120 0 1120 z "},"R":{"ha":1240,"x_min":0,"x_max":1120,"o":"m 22 1495 l 1101 1495 q 1120 1476 1120 1495 l 1120 396 q 1099 374 1120 374 l 741 374 q 675 320 712 374 l 670 307 q 773 176 773 233 l 773 168 q 659 14 773 88 q 559 0 610 0 q 385 81 437 0 q 347 174 347 126 q 448 304 347 233 l 450 309 q 377 374 416 374 l 22 374 q 0 396 0 374 l 0 749 q 90 860 0 821 q 103 863 94 863 l 114 863 q 190 787 132 863 q 247 760 222 760 q 350 830 284 760 q 374 925 374 864 l 374 944 q 317 1072 374 1030 q 241 1109 275 1109 q 138 1017 202 1109 q 114 1006 122 1006 l 103 1006 q 5 1088 53 1006 q 0 1120 0 1107 l 0 1473 q 22 1495 0 1495 z "},"S":{"ha":1227,"x_min":0,"x_max":1118,"o":"m 19 1120 l 1099 1120 q 1118 1101 1118 1120 l 1118 732 q 1044 640 1118 688 q 1015 632 1023 632 l 1006 632 q 947 689 985 632 q 871 735 909 735 q 746 578 746 691 l 746 548 q 871 385 746 429 l 876 385 q 982 477 918 385 q 1006 488 996 488 l 1023 488 q 1104 426 1055 488 q 1118 388 1118 402 l 1118 19 q 1099 0 1118 0 l 735 0 q 637 79 684 0 q 632 100 632 89 l 632 114 q 708 190 632 136 q 735 244 735 228 q 670 345 735 279 q 559 374 635 374 l 553 374 q 407 296 452 374 q 385 244 385 267 q 475 138 385 202 q 488 111 488 123 q 399 3 488 45 q 377 0 389 0 l 22 0 q 0 22 0 0 l 0 385 q 73 480 0 434 q 100 488 87 488 l 114 488 q 193 407 133 488 q 244 385 229 385 q 363 480 295 385 q 374 564 374 526 q 247 735 374 694 l 244 735 q 133 640 200 735 q 111 632 119 632 l 103 632 q 5 711 54 632 q 0 735 0 728 l 0 1101 q 19 1120 0 1120 z "},"T":{"ha":1236,"x_min":0,"x_max":1120,"o":"m 22 1495 l 1099 1495 q 1120 1473 1120 1495 l 1120 1112 q 1047 1015 1120 1063 q 1020 1006 1034 1006 l 1006 1006 q 928 1088 987 1006 q 876 1109 893 1109 q 765 1028 828 1109 q 746 933 746 996 q 811 792 746 834 q 879 760 851 760 q 977 844 918 760 q 1006 863 996 863 l 1017 863 q 1109 792 1064 863 q 1120 751 1120 774 l 1120 396 q 1099 374 1120 374 l 741 374 q 670 307 705 374 q 770 187 770 235 q 773 171 773 187 l 773 165 q 694 38 773 104 q 562 0 654 0 q 399 65 446 0 q 347 165 349 121 q 437 293 347 235 q 450 312 450 307 q 377 374 414 374 l 22 374 q 0 396 0 374 l 0 743 q 98 863 0 825 l 114 863 q 195 781 132 863 q 247 760 227 760 q 353 833 286 760 q 374 922 374 867 l 374 947 q 296 1088 374 1042 q 241 1109 268 1109 q 136 1015 203 1109 q 114 1006 119 1006 l 103 1006 q 5 1088 54 1006 q 0 1126 0 1108 l 0 1473 q 22 1495 0 1495 z "},"U":{"ha":1615,"x_min":0,"x_max":1492,"o":"m 22 1120 l 1099 1120 q 1120 1099 1120 1120 l 1120 743 q 1188 670 1120 703 q 1289 768 1246 752 q 1324 773 1313 773 l 1326 773 q 1473 670 1401 773 q 1492 583 1492 639 l 1492 534 q 1364 355 1492 416 q 1326 347 1347 347 l 1324 347 q 1191 448 1258 347 l 1185 450 q 1123 393 1163 450 l 1120 377 l 1120 22 q 1099 0 1120 0 l 735 0 q 640 73 687 0 q 632 100 632 87 l 632 114 q 705 187 632 135 q 735 244 726 208 q 681 334 735 278 q 559 374 647 374 l 553 374 q 388 255 429 374 q 385 241 385 250 q 477 136 385 204 q 488 111 488 121 q 401 3 488 45 l 385 0 l 22 0 q 0 22 0 0 l 0 385 q 71 480 0 430 q 100 488 92 488 l 114 488 q 190 412 131 488 q 247 385 220 385 q 355 467 304 397 q 374 562 374 497 q 339 675 374 642 q 244 735 282 735 q 138 646 201 735 q 111 632 121 632 l 103 632 q 8 708 54 632 q 0 735 0 722 l 0 1099 q 22 1120 0 1120 z "},"V":{"ha":1551,"x_min":0,"x_max":1492,"o":"m 19 1495 l 1099 1495 q 1118 1476 1118 1495 l 1118 1123 q 1185 1044 1118 1080 q 1305 1147 1254 1138 l 1326 1147 q 1459 1063 1390 1147 q 1492 936 1492 1026 l 1492 933 q 1430 773 1492 821 q 1318 722 1375 722 q 1240 760 1282 722 q 1183 825 1189 825 q 1118 746 1118 789 l 1118 393 q 1099 374 1118 374 l 738 374 q 670 312 705 374 l 670 307 q 754 225 754 237 q 770 174 770 199 l 770 165 q 689 35 770 104 q 559 0 649 0 q 399 62 446 0 q 347 157 347 120 l 347 182 q 448 304 347 235 l 448 307 q 404 363 441 337 q 380 374 390 374 l 19 374 q 0 393 0 374 l 0 768 q 54 844 0 799 q 98 863 79 863 l 111 863 q 193 781 132 863 q 244 760 224 760 q 342 825 281 760 q 374 933 374 863 q 315 1072 374 1030 q 239 1109 273 1109 q 138 1020 199 1109 q 106 1006 119 1006 l 103 1006 q 8 1080 54 1006 q 0 1107 0 1094 l 0 1476 q 19 1495 0 1495 z "},"W":{"ha":1377,"x_min":0,"x_max":1120,"o":"m 22 1120 l 377 1120 q 488 1028 446 1120 l 488 1006 q 412 930 488 987 q 385 873 385 900 q 458 770 404 810 q 553 746 491 746 l 570 746 q 697 803 656 746 q 735 879 735 846 q 643 985 735 916 q 632 1009 632 999 l 632 1017 q 697 1107 632 1059 q 738 1120 722 1120 l 1099 1120 q 1120 1099 1120 1120 l 1120 19 q 1101 0 1120 0 l 22 0 q 0 22 0 0 l 0 385 q 76 480 0 435 q 103 488 90 488 l 111 488 q 190 412 133 488 q 247 385 220 385 q 350 456 284 385 q 374 562 374 490 l 374 567 q 244 735 374 696 q 138 643 201 735 q 114 632 122 632 l 103 632 q 5 711 53 632 q 0 735 0 728 l 0 1099 q 22 1120 0 1120 z "},"X":{"ha":1227,"x_min":0,"x_max":1118,"o":"m 19 1120 l 374 1120 q 488 1023 449 1120 l 488 1009 q 404 925 488 987 q 385 876 385 892 q 480 757 385 819 q 551 746 510 746 l 572 746 q 732 865 686 746 q 735 873 732 873 q 640 985 735 918 q 632 1006 632 1002 l 632 1020 q 684 1099 632 1054 q 743 1120 715 1120 l 1099 1120 q 1118 1101 1118 1120 l 1118 19 q 1099 0 1118 0 l 746 0 q 635 87 676 0 q 632 100 632 92 l 632 114 q 708 190 632 134 q 735 244 726 208 q 684 331 735 276 q 559 374 648 374 l 553 374 q 415 307 458 374 q 385 239 385 275 q 477 136 385 203 q 488 111 488 121 q 396 3 488 44 q 369 0 382 0 l 22 0 q 0 22 0 0 l 0 388 q 79 483 0 436 q 103 488 96 488 l 111 488 q 190 410 134 488 q 247 385 224 385 q 355 467 287 385 q 374 562 374 505 q 309 703 374 657 q 244 735 280 728 q 138 646 201 735 q 111 632 123 632 l 100 632 q 3 713 53 632 l 0 727 l 0 1101 q 19 1120 0 1120 z "},"Y":{"ha":1313,"x_min":0,"x_max":1118,"o":"m 19 1492 l 385 1492 q 483 1413 435 1492 q 488 1383 488 1402 l 488 1381 q 404 1297 488 1360 q 385 1248 385 1267 q 456 1145 385 1204 q 564 1118 486 1118 q 713 1199 667 1118 q 735 1248 726 1209 q 646 1354 735 1289 q 632 1381 632 1369 l 632 1392 q 705 1484 632 1437 q 732 1492 720 1492 l 1099 1492 q 1118 1473 1118 1492 l 1118 393 q 1096 372 1118 372 l 743 372 q 673 312 704 372 q 670 304 670 307 q 770 193 760 240 q 773 163 773 169 q 675 22 773 98 q 572 0 640 0 l 540 0 q 372 95 432 0 q 347 163 347 130 l 347 176 q 385 252 347 210 q 450 307 450 303 q 377 372 415 372 l 22 372 q 0 393 0 372 l 0 760 q 81 857 0 808 l 95 860 l 114 860 q 182 792 134 860 q 241 757 208 766 q 342 822 281 757 q 374 936 374 854 q 252 1107 374 1061 l 244 1107 q 138 1017 199 1107 q 111 1004 123 1004 q 0 1096 43 1004 l 0 1473 q 19 1492 0 1492 z "},"Z":{"ha":1168,"x_min":0,"x_max":1120,"o":"m 22 1120 l 385 1120 q 480 1044 435 1120 q 488 1017 488 1031 l 488 1009 q 410 930 488 986 q 385 873 385 897 q 456 773 402 810 q 564 746 486 746 q 703 811 657 746 q 735 876 726 837 q 651 977 735 918 q 632 1006 632 996 l 632 1020 q 705 1112 632 1065 q 732 1120 720 1120 l 1099 1120 q 1120 1099 1120 1120 l 1120 746 q 1088 673 1120 707 q 1017 632 1048 632 l 1009 632 q 936 703 987 632 q 871 735 905 735 q 760 648 802 714 q 746 570 746 615 l 746 551 q 822 410 746 453 q 876 385 857 385 q 982 477 919 385 q 1009 488 1003 488 l 1017 488 q 1115 407 1069 488 q 1120 374 1120 388 l 1120 22 q 1099 0 1120 0 l 24 0 q 0 22 0 0 l 0 374 q 87 486 0 444 l 103 488 l 114 488 q 190 412 132 488 q 247 385 220 385 q 339 445 280 385 q 374 562 374 478 q 339 675 374 642 q 244 735 284 735 q 144 651 201 735 q 114 632 125 632 l 103 632 q 5 713 53 632 q 0 746 0 732 l 0 1099 q 22 1120 0 1120 z "},"[":{"ha":514,"x_min":0,"x_max":0,"o":""},"\\":{"ha":386,"x_min":0,"x_max":0,"o":""},"]":{"ha":514,"x_min":0,"x_max":0,"o":""},"^":{"ha":688,"x_min":0,"x_max":0,"o":""},"_":{"ha":694,"x_min":0,"x_max":0,"o":""},"`":{"ha":694,"x_min":0,"x_max":0,"o":""},"a":{"ha":1274,"x_min":0,"x_max":1120,"o":"m 19 1118 l 385 1118 q 480 1044 433 1118 q 488 1017 488 1031 l 488 1006 q 407 925 488 985 q 385 873 385 893 q 437 787 388 837 q 562 743 474 743 q 700 806 658 743 q 735 873 728 835 q 640 985 735 916 q 632 1006 632 998 l 632 1017 q 705 1109 632 1062 q 732 1118 720 1118 l 1101 1118 q 1120 1099 1120 1118 l 1120 746 q 1028 632 1120 672 q 1015 629 1023 629 l 1009 629 q 939 697 985 629 q 873 732 903 732 q 754 637 822 732 q 746 575 746 600 l 746 543 q 873 382 746 427 q 941 423 903 382 q 1004 486 985 486 l 1020 486 q 1115 407 1065 486 q 1120 372 1120 382 l 1120 22 q 1099 0 1120 0 l 732 0 q 640 73 687 0 q 632 100 632 87 l 632 111 q 713 193 632 132 q 735 244 735 229 q 575 372 694 371 l 548 372 q 407 293 453 372 q 385 239 385 266 q 464 146 385 201 q 488 111 488 127 l 488 100 q 415 8 488 56 q 388 0 401 0 l 19 0 q 0 19 0 0 l 0 385 q 62 472 0 424 q 100 486 87 486 l 114 486 q 171 431 135 486 q 241 385 208 385 l 247 385 q 363 477 297 385 q 374 562 374 524 q 339 673 374 637 q 244 732 283 732 q 138 643 200 732 q 111 629 123 629 q 0 727 39 629 l 0 1099 q 19 1118 0 1118 z "},"b":{"ha":1236,"x_min":0,"x_max":1120,"o":"m 22 1495 l 385 1495 q 483 1416 436 1495 q 488 1392 488 1398 l 488 1383 q 410 1305 488 1360 q 385 1248 385 1268 q 464 1142 405 1180 q 562 1120 494 1120 q 703 1185 659 1120 q 735 1251 728 1213 q 651 1351 735 1293 q 632 1381 632 1370 l 632 1394 q 703 1487 632 1435 q 732 1495 724 1495 l 1101 1495 q 1120 1476 1120 1495 l 1120 1118 q 1034 1009 1120 1053 l 1017 1006 l 1009 1006 q 941 1072 986 1006 q 871 1109 907 1109 q 770 1036 810 1092 q 746 941 746 1006 l 746 928 q 822 784 746 827 q 876 760 857 760 q 982 849 916 760 q 1009 863 998 863 l 1017 863 q 1118 776 1072 863 q 1120 751 1120 761 l 1120 396 q 1099 374 1120 374 l 743 374 q 675 320 710 374 q 670 307 670 311 q 773 171 773 234 l 773 165 q 694 38 773 109 q 562 0 651 0 q 396 68 444 0 q 347 174 347 117 q 450 307 347 234 q 377 374 418 374 l 24 374 q 0 396 0 374 l 0 749 q 87 860 0 817 l 103 863 l 114 863 q 190 787 133 863 q 247 760 222 760 q 342 822 281 760 q 374 936 374 854 q 312 1077 374 1034 q 244 1109 271 1109 q 149 1031 202 1109 q 114 1006 128 1006 l 103 1006 q 11 1080 57 1006 q 0 1126 0 1096 l 0 1473 q 22 1495 0 1495 z "},"c":{"ha":1573,"x_min":0,"x_max":1492,"o":"m 19 1120 l 380 1120 q 488 1025 447 1120 l 488 1009 q 420 939 488 987 q 385 873 385 907 q 456 773 402 810 q 559 746 488 746 q 700 808 658 746 q 735 876 726 833 q 651 977 735 918 q 632 1006 632 996 l 632 1020 q 694 1107 632 1059 q 732 1120 719 1120 l 1099 1120 q 1120 1099 1120 1120 l 1120 741 q 1177 673 1120 711 l 1188 670 q 1289 765 1257 765 q 1324 773 1294 772 l 1335 773 q 1468 681 1391 773 q 1492 586 1492 640 l 1492 540 q 1413 385 1492 438 q 1321 347 1369 347 q 1202 434 1261 347 l 1185 450 q 1120 377 1120 416 l 1120 22 q 1099 0 1120 0 l 22 0 q 0 22 0 0 l 0 385 q 73 480 0 433 q 100 488 87 488 l 111 488 q 182 420 134 488 q 244 385 215 387 q 331 437 276 385 q 374 562 374 473 q 339 675 374 640 q 244 735 281 735 q 138 646 200 735 q 111 632 123 632 l 100 632 q 11 700 60 632 q 0 735 0 725 l 0 1101 q 19 1120 0 1120 z "},"d":{"ha":1581,"x_min":0,"x_max":1492,"o":"m 19 1118 l 385 1118 q 477 1050 427 1118 q 488 1006 488 1025 q 412 930 488 986 q 385 873 385 901 q 480 754 385 818 q 562 743 520 743 q 694 800 654 743 q 732 871 730 839 l 732 876 q 651 974 732 918 q 632 1004 632 993 l 632 1023 q 665 1080 636 1048 q 732 1118 703 1117 l 1099 1118 q 1118 1099 1118 1118 l 1118 746 q 1188 667 1118 701 q 1316 770 1259 770 l 1335 770 q 1462 684 1390 770 q 1492 570 1492 650 l 1492 540 q 1446 412 1492 458 q 1332 347 1383 347 l 1318 347 q 1196 439 1256 347 q 1183 448 1187 448 q 1118 369 1118 414 l 1118 19 q 1099 0 1118 0 l 727 0 q 648 57 678 14 q 632 95 632 83 l 632 114 q 703 184 632 132 q 732 244 732 211 q 637 363 732 300 q 572 372 603 372 l 548 372 q 407 296 453 372 q 385 244 385 267 l 385 241 q 477 136 385 197 q 488 106 488 116 q 410 5 488 52 q 385 0 392 0 l 19 0 q 0 19 0 0 l 0 388 q 81 483 0 435 l 95 486 l 114 486 q 187 412 132 486 q 241 385 214 385 l 247 385 q 358 469 294 385 q 374 559 369 490 q 312 697 374 655 q 239 732 273 732 q 136 640 200 732 q 106 629 117 629 q 8 703 54 629 q 0 730 0 717 l 0 1099 q 19 1118 0 1118 z "},"e":{"ha":1547,"x_min":0,"x_max":1495,"o":"m 19 1495 l 391 1495 q 475 1430 428 1495 q 488 1392 488 1409 l 488 1383 q 410 1305 488 1360 q 385 1248 385 1269 q 445 1156 388 1212 q 562 1120 480 1120 q 703 1185 659 1120 q 735 1251 728 1213 q 648 1354 735 1292 q 632 1383 632 1371 l 632 1386 q 716 1492 632 1448 q 741 1495 731 1495 l 1099 1495 q 1120 1473 1120 1495 l 1120 1115 q 1175 1050 1120 1086 q 1188 1044 1183 1044 q 1283 1137 1255 1137 q 1324 1147 1283 1144 l 1329 1147 q 1476 1039 1404 1147 q 1495 936 1495 1001 q 1430 773 1495 821 q 1321 722 1377 722 q 1191 822 1259 722 l 1185 825 q 1126 773 1166 825 l 1120 754 l 1120 396 q 1099 374 1120 374 l 743 374 q 673 315 707 374 q 670 307 670 309 q 773 171 773 234 l 773 165 q 673 22 773 99 q 559 0 630 0 q 382 84 435 0 q 347 168 347 128 q 439 296 347 237 l 450 309 q 377 374 415 374 l 22 374 q 0 396 0 374 l 0 751 q 87 860 0 818 q 98 863 92 863 l 111 863 q 182 795 134 863 q 244 760 218 760 q 363 852 295 760 q 374 936 374 890 l 374 941 q 252 1109 374 1064 l 244 1109 q 138 1020 202 1109 q 111 1006 123 1006 l 98 1006 q 8 1080 58 1006 q 0 1118 0 1101 l 0 1476 q 19 1495 0 1495 z "},"f":{"ha":1223,"x_min":0,"x_max":1118,"o":"m 540 1492 l 581 1492 q 770 1348 715 1492 q 773 1326 773 1333 q 689 1204 773 1259 q 670 1185 670 1188 q 743 1120 703 1120 l 1096 1120 q 1118 1099 1118 1120 l 1118 19 q 1099 0 1118 0 l 732 0 q 648 60 694 0 q 632 100 632 83 l 632 111 q 700 182 632 133 q 735 244 733 216 q 689 326 729 282 q 559 374 650 374 q 426 320 467 374 q 385 244 385 274 q 475 138 385 199 q 488 111 488 121 l 488 109 q 393 0 488 41 l 19 0 q 0 19 0 0 l 0 388 q 65 475 0 429 q 111 488 87 488 q 193 407 133 488 q 244 385 221 387 q 336 442 281 385 q 374 556 374 480 q 317 694 374 656 q 244 735 298 720 q 144 651 203 735 q 114 632 125 632 l 95 632 q 14 694 63 632 q 0 732 0 717 l 0 1099 q 22 1120 0 1120 l 377 1120 q 450 1188 417 1120 q 347 1316 347 1259 l 347 1329 q 456 1476 347 1404 q 540 1492 488 1492 z "},"g":{"ha":1227,"x_min":0,"x_max":1120,"o":"m 537 1866 l 583 1866 q 730 1796 676 1866 q 773 1701 773 1744 l 773 1698 q 678 1571 773 1632 q 670 1563 678 1567 q 760 1492 700 1492 l 1101 1492 q 1120 1473 1120 1492 l 1120 393 q 1101 374 1120 374 l 746 374 q 670 307 705 374 q 765 203 765 233 q 773 168 773 195 l 773 165 q 689 33 773 102 q 567 0 651 0 l 553 0 q 410 52 455 0 q 347 171 347 114 q 450 304 347 234 l 450 309 q 374 374 416 374 l 19 374 q 0 393 0 374 l 0 749 q 90 860 0 817 l 106 863 q 182 795 135 863 q 244 760 216 760 q 358 844 296 760 q 374 920 374 872 l 374 944 q 309 1077 374 1033 q 247 1109 289 1098 q 144 1023 201 1109 q 109 1004 122 1004 q 5 1088 52 1004 q 0 1112 0 1105 l 0 1473 q 19 1492 0 1492 l 358 1492 q 450 1563 424 1492 q 350 1685 350 1635 q 347 1701 347 1689 q 445 1845 347 1769 q 537 1866 481 1866 z "},"h":{"ha":1240,"x_min":0,"x_max":1118,"o":"m 540 1492 l 581 1492 q 768 1354 712 1492 q 773 1324 770 1348 q 678 1196 773 1259 q 670 1183 670 1187 q 749 1118 705 1118 l 1099 1118 q 1118 1099 1118 1118 l 1118 732 q 1085 670 1118 707 q 1023 632 1045 632 l 1006 632 q 952 681 985 632 q 882 732 910 732 l 871 732 q 760 646 821 732 q 746 572 746 621 l 746 543 q 822 407 746 456 q 873 385 850 385 l 876 385 q 971 464 918 385 q 1009 488 991 488 l 1015 488 q 1112 412 1061 488 q 1118 385 1118 391 l 1118 19 q 1099 0 1118 0 l 19 0 q 0 19 0 0 l 0 385 q 73 480 0 431 q 103 488 94 488 l 111 488 q 187 412 133 488 q 239 385 215 387 l 244 385 q 363 480 300 385 q 374 559 374 524 q 317 694 374 654 q 247 732 279 730 l 241 732 q 144 651 200 732 q 114 632 125 632 l 100 632 q 14 694 61 632 q 0 732 0 719 l 0 1099 q 19 1118 0 1118 l 363 1118 q 450 1188 419 1118 q 347 1316 347 1259 l 347 1335 q 439 1468 347 1391 q 540 1492 480 1492 z "},"i":{"ha":1249,"x_min":0,"x_max":1120,"o":"m 562 1495 q 735 1416 682 1495 q 773 1329 773 1368 l 773 1324 q 670 1188 773 1258 q 743 1120 703 1120 l 1099 1120 q 1120 1099 1120 1120 l 1120 743 q 1034 635 1120 677 l 1017 632 l 1009 632 q 930 708 988 632 q 873 735 900 735 q 781 675 838 732 q 746 559 746 641 q 800 426 746 467 q 876 385 846 385 q 977 469 921 385 q 1006 488 996 488 l 1023 488 q 1101 431 1055 488 q 1120 382 1120 404 l 1120 22 q 1099 0 1120 0 l 735 0 q 643 71 688 0 q 632 111 632 88 q 716 195 632 133 q 735 244 735 228 q 654 355 735 293 q 559 374 624 374 q 412 301 456 374 q 388 247 390 274 l 388 241 q 469 144 388 200 q 488 114 488 126 l 488 95 q 429 16 473 44 q 388 0 405 0 l 22 0 q 0 22 0 0 l 0 369 q 87 486 0 444 l 103 488 l 114 488 q 174 431 135 488 q 250 385 210 385 q 374 548 374 429 l 374 572 q 250 735 374 691 l 244 735 q 149 656 203 735 q 114 632 127 632 l 103 632 q 8 708 55 632 q 0 751 0 726 l 0 1099 q 22 1120 0 1120 l 377 1120 q 450 1185 417 1120 l 450 1188 q 353 1299 353 1263 q 347 1329 350 1305 q 431 1462 347 1385 q 562 1495 478 1495 z "},"j":{"ha":1236,"x_min":0,"x_max":1118,"o":"m 556 1492 l 572 1492 q 730 1419 675 1492 q 770 1329 770 1369 l 770 1313 q 673 1191 770 1259 l 670 1185 q 724 1123 670 1159 q 746 1118 734 1118 l 1099 1118 q 1118 1099 1118 1118 l 1118 19 q 1099 0 1118 0 l 19 0 q 0 19 0 0 l 0 385 q 71 477 0 431 q 111 488 91 488 q 193 407 128 488 q 241 382 208 391 q 350 458 286 382 q 374 559 374 494 q 320 692 374 650 q 244 732 272 732 l 241 732 q 141 648 200 732 q 106 629 122 629 q 38 662 79 629 q 0 730 0 705 l 0 1099 q 19 1118 0 1118 l 377 1118 q 448 1180 408 1118 l 448 1185 l 374 1251 q 347 1313 347 1289 l 347 1329 q 456 1476 347 1403 q 556 1492 486 1492 z "},"k":{"ha":1198,"x_min":0,"x_max":1118,"o":"m 537 1866 l 583 1866 q 768 1728 712 1866 q 773 1698 773 1714 q 741 1619 773 1668 q 670 1560 680 1574 q 757 1492 701 1492 l 1099 1492 q 1118 1473 1118 1492 l 1118 1101 q 1058 1020 1118 1069 q 1009 1004 1027 1004 q 930 1082 986 1004 q 876 1109 893 1109 q 746 944 746 1070 l 746 922 q 819 784 746 829 q 873 760 851 760 l 876 760 q 977 844 918 760 q 1012 863 996 863 q 1080 830 1039 863 q 1118 762 1118 788 l 1118 393 q 1099 374 1118 374 l 746 374 q 670 307 703 374 l 670 304 q 773 168 773 235 q 708 49 773 114 q 567 0 663 0 l 553 0 q 372 98 426 0 q 347 165 347 133 l 347 168 q 439 296 347 235 q 450 307 439 300 q 374 374 416 374 l 19 374 q 0 393 0 374 l 0 760 q 81 857 0 810 q 106 863 99 863 l 109 863 q 187 787 134 863 q 244 760 220 760 q 363 852 298 760 q 374 936 374 892 q 296 1085 374 1042 q 244 1109 288 1098 q 174 1063 213 1109 q 109 1004 132 1004 q 5 1085 54 1004 q 0 1109 0 1103 l 0 1473 q 19 1492 0 1492 l 358 1492 q 450 1563 420 1492 q 355 1657 370 1621 q 347 1698 347 1682 l 347 1701 q 448 1847 347 1771 q 537 1866 488 1866 z "},"l":{"ha":1611,"x_min":0,"x_max":1492,"o":"m 537 1492 l 578 1492 q 770 1340 719 1492 l 770 1321 q 670 1191 770 1256 l 670 1185 q 732 1120 670 1154 q 754 1118 743 1118 l 1099 1118 q 1118 1099 1118 1118 l 1118 749 q 1183 670 1118 703 l 1185 670 q 1245 741 1189 670 q 1326 773 1289 773 q 1470 673 1393 773 q 1492 559 1492 635 l 1492 553 q 1411 382 1492 433 q 1337 347 1365 347 l 1318 347 q 1191 445 1255 347 l 1185 448 q 1118 363 1118 420 l 1118 19 q 1099 0 1118 0 l 19 0 q 0 19 0 0 l 0 388 q 84 486 0 437 q 114 488 108 488 q 187 412 127 488 q 241 385 217 385 l 244 385 q 336 442 281 385 q 374 559 374 479 q 258 730 374 686 q 244 735 244 732 q 141 648 202 735 q 106 629 122 629 q 3 713 50 629 l 0 727 l 0 1099 q 19 1118 0 1118 l 369 1118 q 448 1188 419 1118 q 347 1310 347 1262 l 347 1337 q 399 1432 352 1380 q 537 1492 450 1492 z "},"m":{"ha":1590,"x_min":0,"x_max":1495,"o":"m 540 1492 l 581 1492 q 768 1356 713 1492 q 773 1326 773 1345 l 773 1324 q 684 1199 773 1258 q 670 1188 684 1197 q 743 1120 703 1120 l 1099 1120 q 1120 1099 1120 1120 l 1120 741 q 1185 670 1120 707 l 1191 670 q 1324 773 1260 773 q 1478 662 1404 773 q 1495 556 1495 625 q 1394 372 1495 423 q 1329 347 1364 347 l 1324 347 q 1199 439 1257 347 q 1188 450 1195 439 q 1120 374 1120 417 l 1120 19 q 1101 0 1120 0 l 730 0 q 646 62 696 0 q 632 103 632 92 l 632 111 q 711 190 632 134 q 735 247 735 222 q 659 353 721 306 q 559 374 626 374 q 415 304 458 374 q 385 241 385 270 q 469 144 385 202 q 488 114 488 125 l 488 100 q 410 5 488 52 q 385 0 392 0 l 22 0 q 0 22 0 0 l 0 377 q 90 486 0 444 q 111 488 100 488 q 193 407 134 488 q 250 385 225 385 q 345 450 283 385 q 374 553 374 484 l 374 559 q 320 692 374 658 q 252 732 290 725 l 241 732 q 149 656 201 732 q 114 632 130 632 l 100 632 q 16 692 62 632 q 0 735 0 717 l 0 1096 q 22 1120 0 1120 l 377 1120 q 450 1183 414 1120 l 450 1188 q 350 1308 350 1259 q 347 1324 347 1308 q 453 1473 347 1404 q 540 1492 483 1492 z "},"n":{"ha":1598,"x_min":0,"x_max":1489,"o":"m 537 1866 l 581 1866 q 768 1725 713 1866 q 770 1704 770 1715 l 770 1695 q 670 1565 770 1630 l 670 1560 q 757 1492 699 1492 l 1099 1492 q 1118 1473 1118 1492 l 1118 1131 q 1188 1044 1118 1070 q 1326 1147 1256 1147 q 1465 1055 1392 1147 q 1489 977 1489 1019 l 1489 890 q 1416 760 1489 821 q 1329 722 1367 722 l 1313 722 q 1191 819 1261 722 l 1185 822 q 1123 765 1156 822 q 1118 743 1118 755 l 1118 393 q 1099 374 1118 374 l 746 374 q 670 309 703 374 l 670 307 l 743 241 q 770 179 770 203 l 770 163 q 667 19 770 92 q 562 0 633 0 l 556 0 q 385 79 433 0 q 347 163 347 121 l 347 179 q 445 301 347 233 l 448 307 q 396 369 448 330 q 372 374 378 374 l 19 374 q 0 393 0 374 l 0 762 q 81 857 0 812 q 111 863 92 863 q 193 781 129 863 q 239 760 224 760 l 244 760 q 336 817 280 760 q 374 933 374 853 q 260 1104 374 1059 l 244 1109 q 141 1023 201 1109 q 106 1004 122 1004 q 5 1085 52 1004 q 0 1107 0 1095 l 0 1473 q 19 1492 0 1492 l 361 1492 q 448 1563 421 1492 q 353 1668 353 1635 q 347 1687 348 1668 l 347 1712 q 434 1839 347 1762 q 537 1866 475 1866 z "},"o":{"ha":1598,"x_min":0,"x_max":1489,"o":"m 391 1120 l 1470 1120 q 1489 1101 1489 1120 l 1489 19 q 1470 0 1489 0 l 1115 0 q 1004 90 1047 0 q 1001 114 1001 104 q 1077 187 1001 132 q 1104 239 1102 215 l 1104 247 q 1039 345 1104 287 q 936 374 1006 374 l 925 374 q 795 317 834 374 q 757 247 760 279 l 757 244 q 849 136 757 199 q 860 106 860 117 q 781 5 860 57 q 754 0 760 0 l 391 0 q 372 19 372 0 l 372 366 q 301 450 372 422 q 165 347 233 347 q 19 448 90 347 q 0 515 0 481 l 0 605 q 138 770 0 707 l 165 773 q 288 686 230 773 q 304 670 301 670 q 372 754 372 701 l 372 1101 q 391 1120 372 1120 z "},"p":{"ha":1603,"x_min":0,"x_max":1495,"o":"m 396 1495 l 1476 1495 q 1495 1476 1495 1495 l 1495 396 q 1473 374 1495 374 l 1115 374 q 1050 320 1086 374 q 1044 307 1044 311 q 1145 184 1145 235 q 1147 168 1147 184 q 1042 19 1147 94 q 936 0 998 0 q 770 68 818 0 q 722 171 722 121 q 822 304 722 234 l 825 309 q 754 374 788 374 l 396 374 q 374 396 374 374 l 374 751 q 307 825 374 792 q 184 722 238 729 l 168 722 q 24 819 97 722 q 0 933 0 861 q 73 1104 0 1053 q 168 1147 123 1147 l 176 1147 q 290 1063 232 1147 q 309 1044 307 1044 q 374 1115 374 1081 l 374 1473 q 396 1495 374 1495 z "},"q":{"ha":1624,"x_min":0,"x_max":1492,"o":"m 393 1120 l 1473 1120 q 1492 1101 1492 1120 l 1492 732 q 1413 637 1492 684 q 1389 632 1396 632 l 1383 632 q 1310 703 1360 632 q 1245 735 1277 735 q 1145 665 1197 726 q 1118 562 1118 627 q 1215 399 1118 443 q 1251 385 1217 392 q 1356 477 1291 385 q 1381 488 1371 488 l 1397 488 q 1476 431 1428 488 q 1492 393 1492 404 l 1492 19 q 1473 0 1492 0 l 1109 0 q 1015 73 1061 0 q 1004 114 1004 93 q 1090 198 1004 131 q 1107 239 1107 230 l 1107 247 q 1042 345 1107 288 q 939 374 1010 374 l 928 374 q 789 307 831 374 q 760 244 760 273 q 844 144 760 199 q 863 109 863 125 q 781 5 863 53 q 757 0 764 0 l 393 0 q 374 19 374 0 l 374 372 q 307 450 374 418 l 304 450 q 209 355 248 371 q 163 347 184 347 q 19 453 94 347 q 0 556 0 486 l 0 562 q 43 703 0 662 q 165 773 109 773 l 171 773 q 296 681 235 773 q 307 670 300 681 q 374 757 374 703 l 374 1101 q 393 1120 374 1120 z "},"r":{"ha":1603,"x_min":0,"x_max":1492,"o":"m 391 1495 l 1473 1495 q 1492 1476 1492 1495 l 1492 1109 q 1421 1017 1492 1063 q 1381 1006 1404 1006 q 1302 1085 1358 1006 q 1242 1109 1270 1109 q 1137 1031 1189 1097 q 1118 933 1118 999 l 1118 930 q 1177 798 1118 838 q 1248 760 1210 766 q 1348 844 1289 760 q 1378 863 1367 863 l 1392 863 q 1484 789 1436 863 q 1492 760 1492 768 l 1492 396 q 1470 374 1492 374 l 1115 374 q 1042 307 1075 374 q 1145 171 1145 236 l 1145 163 q 1066 38 1145 111 q 933 0 1024 0 q 768 68 816 0 q 719 171 719 123 q 754 247 736 247 q 822 307 765 261 l 822 309 q 749 374 788 374 l 393 374 q 372 396 372 374 l 372 754 q 309 825 372 787 l 304 825 q 182 724 232 724 q 165 722 182 722 q 33 806 101 722 q 0 911 0 843 l 0 958 q 84 1115 0 1058 q 163 1147 127 1147 l 176 1147 q 304 1044 233 1147 q 372 1107 331 1044 l 372 1476 q 391 1495 372 1495 z "},"s":{"ha":1909,"x_min":0,"x_max":1869,"o":"m 396 1120 l 1473 1120 q 1495 1099 1495 1120 l 1495 743 q 1554 673 1495 707 q 1563 670 1560 670 q 1685 770 1634 770 q 1701 773 1685 773 q 1836 686 1765 773 q 1869 559 1869 646 q 1807 401 1869 450 q 1706 347 1753 351 l 1701 347 q 1565 448 1632 347 l 1560 450 q 1495 377 1495 415 l 1495 24 q 1473 0 1495 0 l 1118 0 q 1015 73 1058 0 q 1006 100 1006 87 l 1006 114 q 1072 179 1006 136 q 1109 244 1106 212 q 1034 353 1109 286 q 939 374 998 374 l 936 374 q 795 315 834 374 q 760 244 760 272 q 849 138 760 201 q 863 111 863 121 q 776 3 863 47 q 751 0 761 0 l 393 0 q 374 19 374 0 l 374 374 q 309 450 374 415 q 244 377 306 450 q 168 347 203 347 q 19 453 90 347 q 0 562 0 485 q 49 708 0 664 q 171 773 112 773 q 301 675 233 773 l 309 670 q 374 746 374 705 l 374 1099 q 396 1120 374 1120 z "},"t":{"ha":1986,"x_min":0,"x_max":1866,"o":"m 393 1495 l 1473 1495 q 1492 1476 1492 1495 l 1492 1123 q 1560 1044 1492 1077 q 1563 1047 1563 1044 q 1663 1142 1627 1132 q 1698 1147 1687 1147 l 1701 1147 q 1834 1063 1763 1147 q 1866 941 1866 1023 l 1866 933 q 1796 768 1866 813 q 1698 722 1747 722 q 1563 825 1630 722 l 1557 825 q 1492 746 1492 790 l 1492 396 q 1470 374 1492 374 l 1118 374 q 1044 312 1077 374 l 1044 307 q 1115 247 1044 303 q 1145 179 1145 203 l 1145 157 q 1058 30 1133 89 q 930 0 1013 0 q 792 43 836 0 q 719 171 719 111 q 811 296 719 233 l 822 307 q 757 374 822 339 l 393 374 q 374 393 374 374 l 374 732 q 304 825 374 798 q 193 727 234 727 q 165 722 193 722 q 16 830 90 722 q 0 914 0 863 l 0 955 q 92 1120 0 1063 q 165 1147 133 1147 l 168 1147 q 290 1061 233 1147 q 307 1044 304 1044 q 374 1134 374 1076 l 374 1476 q 393 1495 374 1495 z "},"u":{"ha":1636,"x_min":0,"x_max":1495,"o":"m 396 1120 l 757 1120 q 854 1044 809 1120 q 863 1017 863 1031 l 863 1009 q 808 949 863 988 q 760 876 760 909 q 838 765 760 831 q 933 746 867 746 l 941 746 q 1109 868 1063 746 l 1109 876 q 1017 982 1109 919 q 1006 1006 1006 1000 l 1006 1020 q 1085 1115 1006 1067 q 1118 1120 1104 1120 l 1473 1120 q 1495 1099 1495 1120 l 1495 19 q 1476 0 1495 0 l 396 0 q 374 22 374 0 l 374 380 q 320 445 374 408 q 307 450 311 450 q 203 355 234 355 q 168 347 195 347 q 22 448 96 347 q 0 562 0 490 q 87 741 0 686 q 168 773 130 773 q 301 675 234 773 l 309 670 q 374 741 374 707 l 374 1099 q 396 1120 374 1120 z "},"v":{"ha":1632,"x_min":0,"x_max":1492,"o":"m 393 1120 l 749 1120 q 860 1031 817 1120 l 863 1006 q 776 922 863 991 q 760 882 760 890 l 760 873 q 852 757 760 823 q 925 746 886 746 l 933 746 q 1066 800 1031 746 q 1107 873 1104 839 l 1107 879 q 1015 985 1107 920 q 1004 1009 1004 1001 l 1004 1015 q 1082 1112 1004 1067 q 1118 1120 1096 1120 l 1473 1120 q 1492 1101 1492 1120 l 1492 22 q 1470 0 1492 0 l 1126 0 q 1006 92 1045 0 q 1004 106 1004 97 l 1004 111 q 1080 187 1004 134 q 1107 241 1107 218 l 1107 247 q 1042 345 1107 288 q 939 374 1010 374 l 933 374 q 795 315 833 374 q 760 244 760 276 q 844 144 760 198 q 863 109 863 125 q 827 38 863 81 q 741 0 788 0 l 396 0 q 374 22 374 0 l 374 372 q 312 448 374 415 q 304 450 307 450 q 195 353 234 353 q 163 347 195 347 q 24 442 98 347 q 0 551 0 479 l 0 578 q 138 768 0 713 q 168 773 149 773 q 290 686 233 773 q 307 670 303 670 q 374 749 374 703 l 374 1101 q 393 1120 374 1120 z "},"w":{"ha":1658,"x_min":0,"x_max":1489,"o":"m 391 1492 l 757 1492 q 854 1416 804 1492 q 860 1389 860 1394 l 860 1381 q 784 1305 860 1359 q 757 1253 759 1277 l 757 1248 q 852 1128 757 1192 q 936 1118 892 1118 q 1107 1248 1065 1118 q 1023 1348 1107 1290 q 1004 1378 1004 1367 l 1004 1392 q 1066 1478 1004 1432 q 1104 1492 1090 1492 l 1470 1492 q 1489 1473 1489 1492 l 1489 391 q 1470 372 1489 372 l 1109 372 q 1042 309 1076 372 l 1042 304 q 1145 168 1145 233 l 1145 165 q 1061 33 1145 103 q 949 0 1021 0 l 911 0 q 719 149 772 0 l 719 179 q 819 301 719 233 l 819 307 q 754 372 819 340 l 393 372 q 372 393 372 372 l 372 746 q 301 822 372 793 q 179 722 231 722 l 152 722 q 27 808 100 722 q 0 890 0 844 l 0 977 q 130 1139 0 1074 q 155 1145 148 1145 l 168 1145 q 298 1047 231 1145 l 304 1044 q 366 1099 332 1044 q 372 1120 372 1109 l 372 1473 q 391 1492 372 1492 z "},"x":{"ha":1607,"x_min":0,"x_max":1495,"o":"m 393 1120 l 762 1120 q 854 1047 807 1120 q 863 1020 863 1034 l 863 1006 q 787 930 863 989 q 760 876 764 908 q 827 776 760 837 q 939 746 857 746 q 1085 822 1040 746 q 1109 876 1109 857 q 1020 982 1109 919 q 1006 1009 1006 998 l 1006 1017 q 1085 1115 1006 1069 q 1107 1120 1095 1120 l 1473 1120 q 1495 1099 1495 1120 l 1495 738 q 1416 637 1495 686 q 1392 632 1398 632 l 1381 632 q 1305 708 1364 632 q 1251 735 1275 735 q 1131 640 1195 735 q 1120 559 1120 608 q 1175 426 1120 467 q 1251 385 1216 391 q 1351 469 1292 385 q 1381 488 1370 488 l 1394 488 q 1481 423 1435 488 q 1495 377 1495 401 l 1495 22 q 1473 0 1495 0 l 396 0 q 374 22 374 0 l 374 374 q 315 448 374 414 q 307 450 309 450 q 184 350 235 350 q 168 347 184 347 q 33 434 103 347 q 0 562 0 474 q 87 741 0 685 q 165 773 128 773 l 179 773 q 304 673 235 773 l 309 670 q 374 746 374 705 l 374 1101 q 393 1120 374 1120 z "},"y":{"ha":1615,"x_min":0,"x_max":1492,"o":"m 393 1118 l 760 1118 q 857 1036 810 1118 l 860 1023 l 860 1004 q 787 930 860 986 q 760 882 762 905 l 760 871 q 833 768 760 828 q 933 743 869 743 q 1066 798 1023 743 q 1107 873 1105 840 l 1107 876 q 1017 979 1107 920 q 1004 1012 1004 999 q 1036 1080 1004 1038 q 1107 1118 1080 1118 l 1473 1118 q 1492 1099 1492 1118 l 1492 730 q 1416 637 1492 684 q 1378 629 1393 629 q 1291 719 1366 629 q 1248 732 1262 732 q 1156 675 1208 732 q 1118 559 1118 638 q 1172 426 1118 469 q 1248 385 1218 385 q 1343 461 1293 385 q 1383 488 1365 488 l 1386 488 q 1484 415 1436 488 q 1492 388 1492 401 l 1492 19 q 1473 0 1492 0 l 1101 0 q 1028 49 1074 0 q 1004 111 1004 80 q 1085 193 1004 130 q 1107 244 1107 219 q 1015 361 1107 300 q 930 374 979 374 q 776 288 822 374 q 760 247 760 265 l 760 241 q 852 133 760 201 q 860 114 860 123 l 860 98 q 789 8 860 56 q 760 0 768 0 l 393 0 q 374 19 374 0 l 374 372 q 312 448 374 411 l 307 448 l 241 377 q 171 347 210 347 l 163 347 q 16 456 88 347 q 0 540 0 488 l 0 578 q 106 751 0 696 q 155 770 133 770 l 179 770 q 296 678 233 770 q 309 670 304 670 q 374 754 374 702 l 374 1099 q 393 1118 374 1118 z "},"z":{"ha":1619,"x_min":0,"x_max":1495,"o":"m 393 1492 l 762 1492 q 852 1424 804 1492 q 863 1389 863 1403 l 863 1381 q 784 1302 863 1358 q 760 1245 760 1268 q 836 1139 760 1207 q 936 1118 873 1118 q 1080 1188 1038 1118 q 1109 1251 1109 1222 q 1017 1356 1109 1291 q 1006 1381 1006 1371 l 1006 1392 q 1080 1484 1006 1436 q 1107 1492 1094 1492 l 1473 1492 q 1495 1470 1495 1492 l 1495 1107 q 1432 1020 1495 1065 q 1389 1004 1407 1004 l 1383 1004 q 1318 1066 1360 1004 q 1251 1107 1281 1107 q 1131 1012 1194 1107 q 1120 930 1120 975 q 1175 800 1120 837 q 1248 760 1215 760 l 1253 760 q 1345 836 1294 760 q 1381 860 1366 860 l 1394 860 q 1487 787 1440 860 q 1495 760 1495 773 l 1495 393 q 1473 372 1495 372 l 1118 372 q 1044 307 1078 372 l 1044 304 q 1139 209 1125 245 q 1147 168 1147 184 l 1147 165 q 1044 19 1147 92 q 955 0 1008 0 l 922 0 q 795 41 834 0 q 722 165 722 107 l 722 168 q 808 290 722 234 l 825 307 q 751 372 789 372 l 399 372 q 374 393 374 372 l 374 749 q 309 822 374 789 l 307 822 q 201 727 234 727 q 182 722 201 722 l 155 722 q 33 806 104 722 q 0 933 0 844 q 81 1109 0 1057 q 165 1145 128 1145 l 179 1145 q 307 1042 233 1145 q 374 1112 374 1078 l 374 1473 q 393 1492 374 1492 z "},"{":{"ha":688,"x_min":0,"x_max":0,"o":""},"|":{"ha":688,"x_min":0,"x_max":0,"o":""},"}":{"ha":688,"x_min":0,"x_max":0,"o":""},"~":{"ha":688,"x_min":0,"x_max":0,"o":""},"¡":{"ha":456,"x_min":0,"x_max":0,"o":""},"¢":{"ha":772,"x_min":0,"x_max":0,"o":""},"£":{"ha":688,"x_min":0,"x_max":0,"o":""},"¤":{"ha":688,"x_min":0,"x_max":0,"o":""},"¥":{"ha":856,"x_min":0,"x_max":0,"o":""},"¦":{"ha":688,"x_min":0,"x_max":0,"o":""},"§":{"ha":688,"x_min":0,"x_max":0,"o":""},"¨":{"ha":694,"x_min":0,"x_max":0,"o":""},"©":{"ha":1135,"x_min":0,"x_max":0,"o":""},"ª":{"ha":439,"x_min":0,"x_max":0,"o":""},"«":{"ha":640,"x_min":0,"x_max":0,"o":""},"¬":{"ha":688,"x_min":0,"x_max":0,"o":""},"®":{"ha":1135,"x_min":0,"x_max":0,"o":""},"¯":{"ha":454,"x_min":0,"x_max":0,"o":""},"°":{"ha":457,"x_min":0,"x_max":0,"o":""},"±":{"ha":688,"x_min":0,"x_max":0,"o":""},"²":{"ha":688,"x_min":0,"x_max":0,"o":""},"³":{"ha":688,"x_min":0,"x_max":0,"o":""},"´":{"ha":694,"x_min":0,"x_max":0,"o":""},"µ":{"ha":800,"x_min":0,"x_max":0,"o":""},"¶":{"ha":694,"x_min":0,"x_max":0,"o":""},"·":{"ha":345,"x_min":0,"x_max":0,"o":""},"∙":{"ha":345,"x_min":0,"x_max":0,"o":""},"¸":{"ha":694,"x_min":0,"x_max":0,"o":""},"¹":{"ha":688,"x_min":0,"x_max":0,"o":""},"º":{"ha":487,"x_min":0,"x_max":0,"o":""},"»":{"ha":640,"x_min":0,"x_max":0,"o":""},"¼":{"ha":1158,"x_min":0,"x_max":0,"o":""},"½":{"ha":1332,"x_min":0,"x_max":0,"o":""},"¾":{"ha":1158,"x_min":0,"x_max":0,"o":""},"¿":{"ha":507,"x_min":0,"x_max":0,"o":""},"À":{"ha":1044,"x_min":0,"x_max":0,"o":""},"Á":{"ha":1044,"x_min":0,"x_max":0,"o":""},"Â":{"ha":1044,"x_min":0,"x_max":0,"o":""},"Ã":{"ha":1044,"x_min":0,"x_max":0,"o":""},"Ä":{"ha":1044,"x_min":0,"x_max":0,"o":""},"Å":{"ha":1044,"x_min":0,"x_max":0,"o":""},"Æ":{"ha":1436,"x_min":0,"x_max":0,"o":""},"Ç":{"ha":949,"x_min":0,"x_max":0,"o":""},"È":{"ha":781,"x_min":0,"x_max":0,"o":""},"É":{"ha":781,"x_min":0,"x_max":0,"o":""},"Ê":{"ha":781,"x_min":0,"x_max":0,"o":""},"Ë":{"ha":781,"x_min":0,"x_max":0,"o":""},"Ì":{"ha":446,"x_min":0,"x_max":0,"o":""},"Í":{"ha":446,"x_min":0,"x_max":0,"o":""},"Î":{"ha":446,"x_min":0,"x_max":0,"o":""},"Ï":{"ha":446,"x_min":0,"x_max":0,"o":""},"Ð":{"ha":1029,"x_min":0,"x_max":0,"o":""},"Ñ":{"ha":1054,"x_min":0,"x_max":0,"o":""},"Ò":{"ha":1095,"x_min":0,"x_max":0,"o":""},"Ó":{"ha":1095,"x_min":0,"x_max":0,"o":""},"Ô":{"ha":1095,"x_min":0,"x_max":0,"o":""},"Õ":{"ha":1095,"x_min":0,"x_max":0,"o":""},"Ö":{"ha":1095,"x_min":0,"x_max":0,"o":""},"×":{"ha":688,"x_min":0,"x_max":0,"o":""},"Ø":{"ha":1095,"x_min":0,"x_max":0,"o":""},"Ù":{"ha":1018,"x_min":0,"x_max":0,"o":""},"Ú":{"ha":1018,"x_min":0,"x_max":0,"o":""},"Û":{"ha":1018,"x_min":0,"x_max":0,"o":""},"Ü":{"ha":1018,"x_min":0,"x_max":0,"o":""},"Ý":{"ha":836,"x_min":0,"x_max":0,"o":""},"Þ":{"ha":760,"x_min":0,"x_max":0,"o":""},"ß":{"ha":848,"x_min":0,"x_max":0,"o":""},"à":{"ha":625,"x_min":0,"x_max":0,"o":""},"á":{"ha":625,"x_min":0,"x_max":0,"o":""},"â":{"ha":625,"x_min":0,"x_max":0,"o":""},"ã":{"ha":625,"x_min":0,"x_max":0,"o":""},"ä":{"ha":625,"x_min":0,"x_max":0,"o":""},"å":{"ha":625,"x_min":0,"x_max":0,"o":""},"æ":{"ha":986,"x_min":0,"x_max":0,"o":""},"ç":{"ha":614,"x_min":0,"x_max":0,"o":""},"è":{"ha":616,"x_min":0,"x_max":0,"o":""},"é":{"ha":616,"x_min":0,"x_max":0,"o":""},"ê":{"ha":616,"x_min":0,"x_max":0,"o":""},"ë":{"ha":616,"x_min":0,"x_max":0,"o":""},"ì":{"ha":349,"x_min":0,"x_max":0,"o":""},"í":{"ha":349,"x_min":0,"x_max":0,"o":""},"î":{"ha":349,"x_min":0,"x_max":0,"o":""},"ï":{"ha":349,"x_min":0,"x_max":0,"o":""},"ð":{"ha":772,"x_min":0,"x_max":0,"o":""},"ñ":{"ha":751,"x_min":0,"x_max":0,"o":""},"ò":{"ha":685,"x_min":0,"x_max":0,"o":""},"ó":{"ha":685,"x_min":0,"x_max":0,"o":""},"ô":{"ha":685,"x_min":0,"x_max":0,"o":""},"õ":{"ha":685,"x_min":0,"x_max":0,"o":""},"ö":{"ha":685,"x_min":0,"x_max":0,"o":""},"÷":{"ha":688,"x_min":0,"x_max":0,"o":""},"ø":{"ha":685,"x_min":0,"x_max":0,"o":""},"ù":{"ha":718,"x_min":0,"x_max":0,"o":""},"ú":{"ha":718,"x_min":0,"x_max":0,"o":""},"û":{"ha":718,"x_min":0,"x_max":0,"o":""},"ü":{"ha":718,"x_min":0,"x_max":0,"o":""},"ý":{"ha":589,"x_min":0,"x_max":0,"o":""},"þ":{"ha":685,"x_min":0,"x_max":0,"o":""},"ÿ":{"ha":589,"x_min":0,"x_max":0,"o":""},"ı":{"ha":349,"x_min":0,"x_max":0,"o":""},"ˆ":{"ha":694,"x_min":0,"x_max":0,"o":""},"ˇ":{"ha":694,"x_min":0,"x_max":0,"o":""},"ˉ":{"ha":694,"x_min":0,"x_max":0,"o":""},"˘":{"ha":694,"x_min":0,"x_max":0,"o":""},"˙":{"ha":694,"x_min":0,"x_max":0,"o":""},"˚":{"ha":694,"x_min":0,"x_max":0,"o":""},"˛":{"ha":694,"x_min":0,"x_max":0,"o":""},"˜":{"ha":694,"x_min":0,"x_max":0,"o":""},"˝":{"ha":694,"x_min":0,"x_max":0,"o":""},"–":{"ha":751,"x_min":0,"x_max":0,"o":""},"—":{"ha":1389,"x_min":0,"x_max":0,"o":""},"‘":{"ha":378,"x_min":0,"x_max":0,"o":""},"’":{"ha":378,"x_min":0,"x_max":0,"o":""},"‚":{"ha":378,"x_min":0,"x_max":0,"o":""},"“":{"ha":617,"x_min":0,"x_max":0,"o":""},"”":{"ha":617,"x_min":0,"x_max":0,"o":""},"„":{"ha":617,"x_min":0,"x_max":0,"o":""},"†":{"ha":688,"x_min":0,"x_max":0,"o":""},"‡":{"ha":688,"x_min":0,"x_max":0,"o":""},"•":{"ha":694,"x_min":0,"x_max":0,"o":""},"…":{"ha":1389,"x_min":0,"x_max":0,"o":""},"‹":{"ha":428,"x_min":0,"x_max":0,"o":""},"›":{"ha":428,"x_min":0,"x_max":0,"o":""},"⁄":{"ha":232,"x_min":0,"x_max":0,"o":""},"∕":{"ha":232,"x_min":0,"x_max":0,"o":""},"₣":{"ha":688,"x_min":0,"x_max":0,"o":""},"₤":{"ha":688,"x_min":0,"x_max":0,"o":""},"₧":{"ha":1375,"x_min":0,"x_max":0,"o":""},"€":{"ha":688,"x_min":0,"x_max":0,"o":""},"№":{"ha":1540,"x_min":0,"x_max":0,"o":""},"™":{"ha":1015,"x_min":0,"x_max":0,"o":""},"∂":{"ha":688,"x_min":0,"x_max":0,"o":""},"∆":{"ha":733,"x_min":0,"x_max":0,"o":""},"∏":{"ha":1027,"x_min":0,"x_max":0,"o":""},"∑":{"ha":818,"x_min":0,"x_max":0,"o":""},"−":{"ha":688,"x_min":0,"x_max":0,"o":""},"√":{"ha":688,"x_min":0,"x_max":0,"o":""},"∞":{"ha":688,"x_min":0,"x_max":0,"o":""},"∫":{"ha":451,"x_min":0,"x_max":0,"o":""},"≈":{"ha":688,"x_min":0,"x_max":0,"o":""},"≤":{"ha":688,"x_min":0,"x_max":0,"o":""},"≥":{"ha":688,"x_min":0,"x_max":0,"o":""},"":{"ha":728,"x_min":0,"x_max":0,"o":""},"ﬁ":{"ha":728,"x_min":0,"x_max":0,"o":""},"":{"ha":733,"x_min":0,"x_max":0,"o":""},"ﬂ":{"ha":733,"x_min":0,"x_max":0,"o":""}}}
